# xmcd
#
# Track frame offsets: 
#        150
#        11750
#        23940
#        36843
#        51538
#        64610
#        77483
#        94203
#        109265
#        123348
#        137525
#        153948
#        166458
#        180825
#        193515
#        209105
#        219220
#        244633
#        256221
#        268555
#        283041
#        296450
#
# Disc length: 4270 seconds
#
# Revision: 0
# Processed by: cddbd v1.5.2PL0 Copyright (c) Steve Scherf et al.
# Submitted via: ExactAudioCopy v0.95b3
#
DISCID=3810ac16
DTITLE=Turner, Ike and Tina - Live!
DYEAR=1965
DGENRE=R&B
TTITLE0=Finger Poppin'
TTITLE1=Down In The Valley
TTITLE2=Good Times
TTITLE3=You Are My Sunshine
TTITLE4=Having A Good Time
TTITLE5=Twist And Shout
TTITLE6=Something's Got A Hold on Me
TTITLE7=I Know (You Don't Want Me No More)
TTITLE8=Tight Pants
TTITLE9=My Man, He's A Lovin' Man
TTITLE10=I Can't Stop Loving You
TTITLE11=To Tell the Truth
TTITLE12=Shake a Tail Feather
TTITLE13=You Must Believe Me
TTITLE14=Ooh Poo Pah Doo
TTITLE15=Early in the Morning
TTITLE16=All I Can Do Is Cry
TTITLE17=Somebody Needs You
TTITLE18=Keep On A Pushin'
TTITLE19=It's All Over
TTITLE20=You're No Good
TTITLE21=Fool For You 
EXTD=
EXTT0=
EXTT1=
EXTT2=
EXTT3=
EXTT4=
EXTT5=
EXTT6=
EXTT7=
EXTT8=
EXTT9=
EXTT10=
EXTT11=
EXTT12=
EXTT13=
EXTT14=
EXTT15=
EXTT16=
EXTT17=
EXTT18=
EXTT19=
EXTT20=
EXTT21=
PLAYORDER=
